<svg xmlns="http://www.w3.org/2000/svg" viewBox="0 0 603.18 153.41"><defs><style>.cls-1{fill:#303ab2;}.cls-2{fill:#e4002b;}</style></defs><title>Asset 3</title><g id="Layer_2" data-name="Layer 2"><g id="Layer_1-2" data-name="Layer 1"><path class="cls-1" d="M0,4.91H39.94V20.18A33.66,33.66,0,0,1,48.7,10.09C54.88,4.91,64.93,0,79.87,0,89.66,0,102,2.59,112.6,13.71a48.6,48.6,0,0,1,8.49,11.9A59.08,59.08,0,0,1,131.4,13.19C139.91,5.43,151.5,0,166.44,0c10.05,0,26,2.33,37.62,14.49,13.4,14.23,15.46,23.8,15.46,55.62V148.5H176.75V72.18c0-6,0-13.71-2.83-20.18-2.58-6.73-8-11.64-19.07-11.64-11.85,0-17.78,5.43-20.62,11.9-3.09,6.46-3.09,13.71-3.09,17.85V148.5H88.37V70.37c0-3.88,0-11.39-2.58-17.85C83,45.79,77.81,40.36,67,40.36c-12.11,0-18,5.69-21.13,12.67s-3.09,14.75-3.09,19.15V148.5H0Z"/><path class="cls-1" d="M398.81,148.5H356V133c-7.73,14-25.5,20.44-42.25,20.44-45.35,0-71.89-35.7-71.89-76.84C241.9,29.49,275.66,0,313.79,0,337.23,0,350.38,11.38,356,20.18V4.91h42.77ZM284.68,77.35c0,13.19,9.78,36,35.55,36,15.2,0,24.48-7.24,29.89-16A39.64,39.64,0,0,0,356,78.9,37,37,0,0,0,352.44,60C347.8,50.19,338,40.1,320,40.1c-24.47,0-35.29,20.7-35.29,37Z"/><polygon class="cls-2" points="543.36 71.72 599.47 4.91 541.1 4.91 512.45 41.96 483.98 5.16 483.8 4.91 425.42 4.91 481.54 71.72 421.72 148.5 478.84 148.5 512.45 104.79 545.87 148.25 546.05 148.5 603.18 148.5 543.36 71.72"/></g></g></svg>